<svg width="108" height="27" viewBox="0 0 108 27" fill="none" xmlns="http://www.w3.org/2000/svg">
<path d="M7.602 16.052C7.602 15.604 7.434 15.24 7.098 14.96C6.776 14.68 6.363 14.428 5.859 14.204C5.369 13.966 4.83 13.728 4.242 13.49C3.668 13.238 3.129 12.937 2.625 12.587C2.135 12.223 1.722 11.775 1.386 11.243C1.064 10.711 0.903 10.032 0.903 9.206C0.903 8.492 1.022 7.876 1.26 7.358C1.498 6.826 1.834 6.385 2.268 6.035C2.716 5.685 3.241 5.426 3.843 5.258C4.445 5.09 5.117 5.006 5.859 5.006C6.713 5.006 7.518 5.083 8.274 5.237C9.03 5.377 9.653 5.587 10.143 5.867L9.24 8.282C8.932 8.086 8.47 7.911 7.854 7.757C7.238 7.589 6.573 7.505 5.859 7.505C5.187 7.505 4.669 7.638 4.305 7.904C3.955 8.17 3.78 8.527 3.78 8.975C3.78 9.395 3.941 9.745 4.263 10.025C4.599 10.305 5.012 10.564 5.502 10.802C6.006 11.04 6.545 11.285 7.119 11.537C7.707 11.789 8.246 12.097 8.736 12.461C9.24 12.811 9.653 13.252 9.975 13.784C10.311 14.302 10.479 14.953 10.479 15.737C10.479 16.521 10.346 17.2 10.08 17.774C9.828 18.334 9.464 18.803 8.988 19.181C8.526 19.559 7.959 19.839 7.287 20.021C6.629 20.203 5.901 20.294 5.103 20.294C4.053 20.294 3.129 20.196 2.331 20C1.533 19.804 0.945 19.608 0.567 19.412L1.491 16.955C1.645 17.039 1.841 17.13 2.079 17.228C2.331 17.326 2.611 17.417 2.919 17.501C3.227 17.585 3.549 17.655 3.885 17.711C4.235 17.767 4.592 17.795 4.956 17.795C5.81 17.795 6.461 17.655 6.909 17.375C7.371 17.081 7.602 16.64 7.602 16.052ZM18.7587 20V14.036C18.7587 13.182 18.6397 12.566 18.4017 12.188C18.1637 11.81 17.7297 11.621 17.0997 11.621C16.6377 11.621 16.2107 11.782 15.8187 12.104C15.4407 12.412 15.1887 12.811 15.0627 13.301V20H12.3327V5.3H15.0627V10.676H15.1467C15.4827 10.228 15.8957 9.871 16.3857 9.605C16.8757 9.339 17.4987 9.206 18.2547 9.206C18.7867 9.206 19.2557 9.276 19.6617 9.416C20.0677 9.556 20.4037 9.787 20.6697 10.109C20.9497 10.431 21.1527 10.872 21.2787 11.432C21.4187 11.978 21.4887 12.657 21.4887 13.469V20H18.7587ZM23.7131 10.109C24.2731 9.857 24.9381 9.661 25.7081 9.521C26.4781 9.367 27.2831 9.29 28.1231 9.29C28.8511 9.29 29.4601 9.381 29.9501 9.563C30.4401 9.731 30.8251 9.976 31.1051 10.298C31.3991 10.62 31.6021 11.005 31.7141 11.453C31.8401 11.901 31.9031 12.405 31.9031 12.965C31.9031 13.581 31.8821 14.204 31.8401 14.834C31.7981 15.45 31.7701 16.059 31.7561 16.661C31.7561 17.263 31.7771 17.851 31.8191 18.425C31.8611 18.985 31.9661 19.517 32.1341 20.021H29.9081L29.4671 18.572H29.3621C29.0821 19.006 28.6901 19.384 28.1861 19.706C27.6961 20.014 27.0591 20.168 26.2751 20.168C25.7851 20.168 25.3441 20.098 24.9521 19.958C24.5601 19.804 24.2241 19.594 23.9441 19.328C23.6641 19.048 23.4471 18.726 23.2931 18.362C23.1391 17.984 23.0621 17.564 23.0621 17.102C23.0621 16.458 23.2021 15.919 23.4821 15.485C23.7761 15.037 24.1891 14.68 24.7211 14.414C25.2671 14.134 25.9111 13.945 26.6531 13.847C27.4091 13.735 28.2491 13.7 29.1731 13.742C29.2711 12.958 29.2151 12.398 29.0051 12.062C28.7951 11.712 28.3261 11.537 27.5981 11.537C27.0521 11.537 26.4711 11.593 25.8551 11.705C25.2531 11.817 24.7561 11.964 24.3641 12.146L23.7131 10.109ZM27.1781 17.921C27.7241 17.921 28.1581 17.802 28.4801 17.564C28.8021 17.312 29.0401 17.046 29.1941 16.766V15.401C28.7601 15.359 28.3401 15.352 27.9341 15.38C27.5421 15.408 27.1921 15.471 26.8841 15.569C26.5761 15.667 26.3311 15.807 26.1491 15.989C25.9671 16.171 25.8761 16.402 25.8761 16.682C25.8761 17.074 25.9881 17.382 26.2121 17.606C26.4501 17.816 26.7721 17.921 27.1781 17.921ZM40.1581 20V14.288C40.1581 13.322 40.0671 12.636 39.8851 12.23C39.7031 11.824 39.3251 11.621 38.7511 11.621C38.2751 11.621 37.8901 11.754 37.5961 12.02C37.3021 12.272 37.0781 12.601 36.9241 13.007V20H34.1941V9.5H36.3151L36.6301 10.886H36.7141C37.0361 10.438 37.4421 10.046 37.9321 9.71C38.4361 9.374 39.0801 9.206 39.8641 9.206C40.5361 9.206 41.0821 9.346 41.5021 9.626C41.9361 9.892 42.2721 10.347 42.5101 10.991C42.8321 10.445 43.2451 10.011 43.7491 9.689C44.2531 9.367 44.8621 9.206 45.5761 9.206C46.1641 9.206 46.6611 9.276 47.0671 9.416C47.4871 9.556 47.8231 9.801 48.0751 10.151C48.3411 10.487 48.5371 10.942 48.6631 11.516C48.7891 12.09 48.8521 12.818 48.8521 13.7V20H46.1221V14.099C46.1221 13.273 46.0311 12.657 45.8491 12.251C45.6811 11.831 45.2961 11.621 44.6941 11.621C44.2041 11.621 43.8121 11.754 43.5181 12.02C43.2381 12.286 43.0281 12.65 42.8881 13.112V20H40.1581ZM51.0925 9.5H53.0875L53.4025 10.76H53.4865C53.8505 10.228 54.2775 9.836 54.7675 9.584C55.2715 9.332 55.8805 9.206 56.5945 9.206C57.9105 9.206 58.8975 9.626 59.5555 10.466C60.2135 11.292 60.5425 12.629 60.5425 14.477C60.5425 15.373 60.4375 16.185 60.2275 16.913C60.0175 17.627 59.7025 18.236 59.2825 18.74C58.8765 19.244 58.3725 19.629 57.7705 19.895C57.1825 20.161 56.5035 20.294 55.7335 20.294C55.2995 20.294 54.9425 20.259 54.6625 20.189C54.3825 20.133 54.1025 20.035 53.8225 19.895V24.2H51.0925V9.5ZM55.7755 11.516C55.2435 11.516 54.8235 11.649 54.5155 11.915C54.2215 12.181 53.9905 12.58 53.8225 13.112V17.48C54.0185 17.634 54.2285 17.76 54.4525 17.858C54.6905 17.942 54.9985 17.984 55.3765 17.984C56.1605 17.984 56.7485 17.711 57.1405 17.165C57.5325 16.605 57.7285 15.688 57.7285 14.414C57.7285 13.49 57.5745 12.776 57.2665 12.272C56.9585 11.768 56.4615 11.516 55.7755 11.516ZM77.6989 8.723C77.6989 9.087 77.6499 9.451 77.5519 9.815C77.4679 10.179 77.3209 10.515 77.1109 10.823C76.9009 11.117 76.6279 11.383 76.2919 11.621C75.9559 11.845 75.5499 12.013 75.0739 12.125V12.251C75.4939 12.321 75.8929 12.44 76.2709 12.608C76.6489 12.776 76.9779 13.007 77.2579 13.301C77.5379 13.595 77.7549 13.952 77.9089 14.372C78.0769 14.792 78.1609 15.289 78.1609 15.863C78.1609 16.619 77.9999 17.277 77.6779 17.837C77.3559 18.383 76.9219 18.831 76.3759 19.181C75.8439 19.531 75.2349 19.79 74.5489 19.958C73.8629 20.126 73.1559 20.21 72.4279 20.21C72.1899 20.21 71.8819 20.21 71.5039 20.21C71.1399 20.21 70.7409 20.196 70.3069 20.168C69.8869 20.154 69.4529 20.126 69.0049 20.084C68.5709 20.042 68.1719 19.979 67.8079 19.895V5.405C68.0739 5.363 68.3749 5.321 68.7109 5.279C69.0609 5.237 69.4319 5.202 69.8239 5.174C70.2159 5.146 70.6149 5.125 71.0209 5.111C71.4409 5.097 71.8539 5.09 72.2599 5.09C72.9459 5.09 73.6109 5.146 74.2549 5.258C74.9129 5.356 75.4939 5.538 75.9979 5.804C76.5159 6.07 76.9289 6.441 77.2369 6.917C77.5449 7.393 77.6989 7.995 77.6989 8.723ZM72.4489 17.837C72.7989 17.837 73.1349 17.795 73.4569 17.711C73.7929 17.627 74.0869 17.501 74.3389 17.333C74.5909 17.151 74.7939 16.927 74.9479 16.661C75.1019 16.395 75.1789 16.08 75.1789 15.716C75.1789 15.254 75.0879 14.89 74.9059 14.624C74.7239 14.358 74.4859 14.155 74.1919 14.015C73.8979 13.861 73.5689 13.763 73.2049 13.721C72.8409 13.679 72.4769 13.658 72.1129 13.658H70.5799V17.711C70.6499 17.739 70.7619 17.76 70.9159 17.774C71.0699 17.788 71.2309 17.802 71.3989 17.816C71.5809 17.816 71.7629 17.823 71.9449 17.837C72.1409 17.837 72.3089 17.837 72.4489 17.837ZM71.5039 11.474C71.6999 11.474 71.9239 11.467 72.1759 11.453C72.4419 11.439 72.6589 11.418 72.8269 11.39C73.3589 11.222 73.8139 10.97 74.1919 10.634C74.5839 10.298 74.7799 9.857 74.7799 9.311C74.7799 8.947 74.7099 8.646 74.5699 8.408C74.4299 8.17 74.2409 7.981 74.0029 7.841C73.7789 7.701 73.5199 7.603 73.2259 7.547C72.9319 7.491 72.6239 7.463 72.3019 7.463C71.9379 7.463 71.6019 7.47 71.2939 7.484C70.9859 7.498 70.7479 7.519 70.5799 7.547V11.474H71.5039ZM82.9661 16.472C82.9661 16.962 83.0291 17.319 83.1551 17.543C83.2811 17.767 83.4841 17.879 83.7641 17.879C83.9321 17.879 84.0931 17.865 84.2471 17.837C84.4151 17.809 84.6181 17.746 84.8561 17.648L85.1501 19.79C84.9261 19.902 84.5831 20.014 84.1211 20.126C83.6591 20.238 83.1831 20.294 82.6931 20.294C81.8951 20.294 81.2861 20.112 80.8661 19.748C80.4461 19.37 80.2361 18.754 80.2361 17.9V5.3H82.9661V16.472ZM85.8209 14.75C85.8209 12.972 86.2549 11.607 87.1229 10.655C87.9909 9.689 89.2089 9.206 90.7769 9.206C91.6169 9.206 92.3449 9.339 92.9609 9.605C93.5769 9.871 94.0879 10.249 94.4939 10.739C94.8999 11.215 95.2009 11.796 95.3969 12.482C95.6069 13.168 95.7119 13.924 95.7119 14.75C95.7119 16.528 95.2779 17.9 94.4099 18.866C93.5559 19.818 92.3449 20.294 90.7769 20.294C89.9369 20.294 89.2089 20.161 88.5929 19.895C87.9769 19.629 87.4589 19.258 87.0389 18.782C86.6329 18.292 86.3249 17.704 86.1149 17.018C85.9189 16.332 85.8209 15.576 85.8209 14.75ZM88.6349 14.75C88.6349 15.212 88.6769 15.639 88.7609 16.031C88.8449 16.423 88.9709 16.766 89.1389 17.06C89.3069 17.354 89.5239 17.585 89.7899 17.753C90.0699 17.907 90.3989 17.984 90.7769 17.984C91.4909 17.984 92.0229 17.725 92.3729 17.207C92.7229 16.689 92.8979 15.87 92.8979 14.75C92.8979 13.784 92.7369 13.007 92.4149 12.419C92.0929 11.817 91.5469 11.516 90.7769 11.516C90.1049 11.516 89.5799 11.768 89.2019 12.272C88.8239 12.776 88.6349 13.602 88.6349 14.75ZM106.487 20C106.487 21.526 106.074 22.646 105.248 23.36C104.422 24.088 103.267 24.452 101.783 24.452C100.775 24.452 99.9772 24.382 99.3892 24.242C98.8152 24.102 98.3812 23.955 98.0872 23.801L98.6542 21.638C98.9762 21.764 99.3472 21.89 99.7672 22.016C100.201 22.142 100.733 22.205 101.363 22.205C102.315 22.205 102.959 21.995 103.295 21.575C103.645 21.169 103.82 20.595 103.82 19.853V19.181H103.736C103.246 19.839 102.378 20.168 101.132 20.168C99.7742 20.168 98.7592 19.748 98.0872 18.908C97.4292 18.068 97.1002 16.752 97.1002 14.96C97.1002 13.084 97.5482 11.663 98.4442 10.697C99.3402 9.731 100.642 9.248 102.35 9.248C103.246 9.248 104.044 9.311 104.744 9.437C105.458 9.563 106.039 9.71 106.487 9.878V20ZM101.867 17.984C102.399 17.984 102.805 17.865 103.085 17.627C103.379 17.389 103.603 17.032 103.757 16.556V11.831C103.323 11.649 102.784 11.558 102.14 11.558C101.44 11.558 100.894 11.824 100.502 12.356C100.11 12.874 99.9142 13.707 99.9142 14.855C99.9142 15.877 100.082 16.654 100.418 17.186C100.754 17.718 101.237 17.984 101.867 17.984Z" fill="#1976D2"/>
</svg>
