<svg width="32" height="32" viewBox="0 0 32 32" fill="none" xmlns="http://www.w3.org/2000/svg">
<rect width="32" height="32" rx="16" fill="#2D79C7"/>
<path d="M8.78592 16.5874C10.2354 18.7872 13.2202 19.401 15.4201 17.9513L16.1281 17.4893L16.1275 14.8335L14.2431 16.0752C13.0607 16.8541 11.4552 16.5241 10.6761 15.3417C9.89703 14.1595 10.2272 12.5536 11.4094 11.7745L16.1281 8.65587V6L10.1499 9.95269C7.94999 11.4024 7.33625 14.3874 8.78592 16.5874ZM21.5921 14.324C22.3677 15.5062 22.039 17.1121 20.862 17.8912L16.1281 21.0098V23.1029V26.5L18.3564 25.0453L18.355 22.2024L22.116 19.713C24.306 18.2632 24.9168 15.2782 23.4739 13.0783C22.0307 10.8784 19.0593 10.2646 16.8695 11.7144L16.1281 12.1763V14.8322L18.0413 13.5904C19.2183 12.8116 20.8166 13.1416 21.5921 14.324Z" fill="white"/>
</svg>
