<svg width="32" height="32" viewBox="0 0 32 32" fill="#2D79C7" xmlns="http://www.w3.org/2000/svg">
<path d="M14.9025 18.7767C11.4922 21.0241 6.86524 20.0726 4.61832 16.6625C2.37106 13.252 3.32247 8.62479 6.73272 6.3774L16.0312 0.25L16.0216 4.3671L8.68519 9.20149C6.8526 10.4093 6.34075 12.8987 7.54845 14.7313C8.75616 16.5643 11.245 17.0759 13.078 15.8685L15.9991 13.9435L15.9891 18.0606L14.9025 18.7767Z"/>
<path d="M23.3886 18.3399C25.2215 17.1321 25.7333 14.6427 24.5256 12.8101C23.3179 10.9771 20.8291 10.4655 18.9962 11.6729L16.0751 13.5979L16.0847 9.48074L17.1716 8.76471C20.5815 6.51728 25.2085 7.46878 27.4558 10.8789C29.7027 14.2893 28.7516 18.9166 25.3414 21.164L19.4847 25.0231L19.4613 29.43L16.017 31.6851L16.045 26.419L16.0525 23.1743L23.3886 18.3399Z"/>
</svg>
